<mxfile host="app.diagrams.net" modified="2023-06-28T12:16:11.671Z" agent="Mozilla/5.0 (Windows NT 10.0; Win64; x64) AppleWebKit/537.36 (KHTML, like Gecko) Chrome/114.0.0.0 Safari/537.36" version="21.5.1" etag="ZC7IPZHrMDSEBTJfjXC5" type="github">
  <diagram name="Page-1" id="Cehyqhd__uqzSmE-X3Yk">
    <mxGraphModel>
      <root>
        <mxCell id="0" />
        <mxCell id="1" parent="0" />
      </root>
    </mxGraphModel>
  </diagram>
</mxfile>
